<svg width="200" height="100" viewBox="0 0 200 100" fill="none" xmlns="http://www.w3.org/2000/svg">
<path d="M29.416 47.032H25V67H16.792V47.032H13.816V40.216H16.792V39.448C16.792 36.152 17.736 33.656 19.624 31.96C21.512 30.232 24.28 29.368 27.928 29.368C28.536 29.368 28.984 29.384 29.272 29.416V36.376C27.704 36.28 26.6 36.504 25.96 37.048C25.32 37.592 25 38.568 25 39.976V40.216H29.416V47.032ZM41.4809 31.48V67H33.2729V31.48H41.4809ZM45.7971 53.56C45.7971 50.808 46.3091 48.392 47.3331 46.312C48.3891 44.232 49.8131 42.632 51.6051 41.512C53.3971 40.392 55.3971 39.832 57.6051 39.832C59.4931 39.832 61.1411 40.216 62.5491 40.984C63.9891 41.752 65.0931 42.76 65.8611 44.008V40.216H74.0691V67H65.8611V63.208C65.0611 64.456 63.9411 65.464 62.5011 66.232C61.0931 67 59.4451 67.384 57.5571 67.384C55.3811 67.384 53.3971 66.824 51.6051 65.704C49.8131 64.552 48.3891 62.936 47.3331 60.856C46.3091 58.744 45.7971 56.312 45.7971 53.56ZM65.8611 53.608C65.8611 51.56 65.2851 49.944 64.1331 48.76C63.0131 47.576 61.6371 46.984 60.0051 46.984C58.3731 46.984 56.9811 47.576 55.8291 48.76C54.7091 49.912 54.1491 51.512 54.1491 53.56C54.1491 55.608 54.7091 57.24 55.8291 58.456C56.9811 59.64 58.3731 60.232 60.0051 60.232C61.6371 60.232 63.0131 59.64 64.1331 58.456C65.2851 57.272 65.8611 55.656 65.8611 53.608ZM90.9033 67.384C88.5673 67.384 86.4873 66.984 84.6633 66.184C82.8393 65.384 81.3993 64.296 80.3433 62.92C79.2873 61.512 78.6953 59.944 78.5673 58.216H86.6793C86.7753 59.144 87.2073 59.896 87.9753 60.472C88.7433 61.048 89.6873 61.336 90.8073 61.336C91.8313 61.336 92.6153 61.144 93.1593 60.76C93.7353 60.344 94.0233 59.816 94.0233 59.176C94.0233 58.408 93.6233 57.848 92.8233 57.496C92.0233 57.112 90.7273 56.696 88.9353 56.248C87.0153 55.8 85.4153 55.336 84.1353 54.856C82.8553 54.344 81.7513 53.56 80.8233 52.504C79.8953 51.416 79.4313 49.96 79.4313 48.136C79.4313 46.6 79.8473 45.208 80.6793 43.96C81.5433 42.68 82.7913 41.672 84.4233 40.936C86.0873 40.2 88.0553 39.832 90.3273 39.832C93.6873 39.832 96.3273 40.664 98.2473 42.328C100.199 43.992 101.319 46.2 101.607 48.952H94.0233C93.8953 48.024 93.4793 47.288 92.7753 46.744C92.1033 46.2 91.2073 45.928 90.0873 45.928C89.1273 45.928 88.3913 46.12 87.8793 46.504C87.3673 46.856 87.1113 47.352 87.1113 47.992C87.1113 48.76 87.5113 49.336 88.3113 49.72C89.1433 50.104 90.4233 50.488 92.1513 50.872C94.1353 51.384 95.7513 51.896 96.9993 52.408C98.2473 52.888 99.3353 53.688 100.263 54.808C101.223 55.896 101.719 57.368 101.751 59.224C101.751 60.792 101.303 62.2 100.407 63.448C99.5433 64.664 98.2793 65.624 96.6153 66.328C94.9833 67.032 93.0793 67.384 90.9033 67.384ZM123.237 39.928C126.309 39.928 128.773 40.952 130.629 43C132.485 45.016 133.413 47.8 133.413 51.352V67H125.253V52.456C125.253 50.664 124.789 49.272 123.861 48.28C122.933 47.288 121.685 46.792 120.117 46.792C118.549 46.792 117.301 47.288 116.373 48.28C115.445 49.272 114.981 50.664 114.981 52.456V67H106.773V31.48H114.981V43.816C115.813 42.632 116.949 41.688 118.389 40.984C119.829 40.28 121.445 39.928 123.237 39.928ZM153.417 37.432C151.977 37.432 150.793 37.016 149.865 36.184C148.969 35.32 148.521 34.264 148.521 33.016C148.521 31.736 148.969 30.68 149.865 29.848C150.793 28.984 151.977 28.552 153.417 28.552C154.825 28.552 155.977 28.984 156.873 29.848C157.801 30.68 158.265 31.736 158.265 33.016C158.265 34.264 157.801 35.32 156.873 36.184C155.977 37.016 154.825 37.432 153.417 37.432ZM157.497 40.216V67H149.289V40.216H157.497ZM178.373 60.04V67H174.197C171.221 67 168.901 66.28 167.237 64.84C165.573 63.368 164.741 60.984 164.741 57.688V47.032H161.477V40.216H164.741V33.688H172.949V40.216H178.325V47.032H172.949V57.784C172.949 58.584 173.141 59.16 173.525 59.512C173.909 59.864 174.549 60.04 175.445 60.04H178.373Z" fill="#F25C05"/>
<path d="M152.5 78C152.5 78 146 71.5 142 64.5C138 57.5 137.5 40 137.5 40C137.5 40 139 32.5 142 26.5C145 20.5 157.5 17 157.5 17L172 20.5C172 20.5 184.5 27.5 186 34.5C187.5 41.5 181.5 59.5 181.5 59.5L175.5 71.5L164.5 83L152.5 78Z" fill="white" stroke="white"/>
<g filter="url(#filter0_d_1_2)">
<path d="M153.276 37.432C151.836 37.432 150.652 37.016 149.724 36.184C148.828 35.32 148.38 34.264 148.38 33.016C148.38 31.736 148.828 30.68 149.724 29.848C150.652 28.984 151.836 28.552 153.276 28.552C154.684 28.552 155.836 28.984 156.732 29.848C157.66 30.68 158.124 31.736 158.124 33.016C158.124 34.264 157.66 35.32 156.732 36.184C155.836 37.016 154.684 37.432 153.276 37.432ZM157.356 40.216V67H149.148V40.216H157.356ZM178.232 60.04V67H174.056C171.08 67 168.76 66.28 167.096 64.84C165.432 63.368 164.6 60.984 164.6 57.688V47.032H161.336V40.216H164.6V33.688H172.808V40.216H178.184V47.032H172.808V57.784C172.808 58.584 173 59.16 173.384 59.512C173.768 59.864 174.408 60.04 175.304 60.04H178.232Z" fill="#F25C05"/>
</g>
<defs>
<filter id="filter0_d_1_2" x="144.38" y="28.552" width="37.8523" height="46.448" filterUnits="userSpaceOnUse" color-interpolation-filters="sRGB">
<feFlood flood-opacity="0" result="BackgroundImageFix"/>
<feColorMatrix in="SourceAlpha" type="matrix" values="0 0 0 0 0 0 0 0 0 0 0 0 0 0 0 0 0 0 127 0" result="hardAlpha"/>
<feOffset dy="4"/>
<feGaussianBlur stdDeviation="2"/>
<feComposite in2="hardAlpha" operator="out"/>
<feColorMatrix type="matrix" values="0 0 0 0 0 0 0 0 0 0 0 0 0 0 0 0 0 0 0.25 0"/>
<feBlend mode="normal" in2="BackgroundImageFix" result="effect1_dropShadow_1_2"/>
<feBlend mode="normal" in="SourceGraphic" in2="effect1_dropShadow_1_2" result="shape"/>
</filter>
</defs>
</svg>
